 <svg version="1.0" xmlns="http://www.w3.org/2000/svg"  width="300.000000pt" height="56.000000pt" viewBox="0 0 300.000000 56.000000"  preserveAspectRatio="xMidYMid meet">  <g transform="translate(0.000000,56.000000) scale(0.100000,-0.100000)" fill="#5ca0c1" stroke="none"> <path d="M855 468 c-3 -7 -4 -103 -3 -213 3 -199 3 -200 26 -203 12 -2 22 1 22 7 0 6 0 99 0 206 0 107 0 200 0 205 0 14 -40 12 -45 -2z"/> <path d="M222 451 c-113 -39 -171 -142 -143 -249 32 -117 169 -176 339 -147 l43 7 -3 106 -3 107 -90 0 c-86 0 -90 -1 -93 -22 -3 -22 0 -23 67 -23 l71 0 0 -64 0 -63 -39 -7 c-54 -8 -122 3 -168 28 -49 27 -88 101 -79 150 9 46 44 96 86 120 38 22 134 28 203 12 35 -8 37 -7 37 17 0 22 -6 27 -50 36 -71 15 -117 13 -178 -8z"/> <path d="M1164 447 c-2 -7 -3 -98 -2 -202 3 -188 3 -190 25 -193 22 -3 23 -2 25 162 l3 165 75 -97 c41 -53 82 -98 92 -100 11 -2 42 30 94 97 42 56 77 101 78 101 1 0 1 -73 1 -162 l0 -163 24 0 24 0 0 200 0 200 -24 3 c-20 2 -37 -14 -97 -90 -39 -51 -78 -101 -85 -111 -12 -17 -21 -8 -97 92 -64 83 -91 110 -108 111 -12 0 -25 -6 -28 -13z"/> <path d="M2037 444 c-4 -4 -7 -25 -7 -46 0 -37 -1 -38 -36 -38 -31 0 -35 -3 -32 -22 2 -19 8 -23 36 -20 l32 2 0 -108 c0 -124 9 -146 69 -162 58 -15 117 12 79 37 -7 4 -23 6 -35 5 -12 -2 -31 2 -42 8 -19 10 -21 20 -21 113 l0 102 85 1 85 0 0 -98 c0 -136 16 -164 95 -170 53 -4 66 2 63 25 -3 19 -8 22 -39 19 -59 -5 -69 13 -69 128 l0 98 53 -2 c47 -1 52 1 55 22 3 20 0 22 -52 22 l-55 0 -3 43 c-2 34 -7 42 -23 42 -16 0 -21 -8 -23 -42 -3 -39 -5 -42 -35 -45 -18 -2 -55 -1 -84 0 l-52 4 -3 41 c-3 40 -22 59 -41 41z"/> <path d="M585 350 c-49 -24 -74 -64 -81 -127 -7 -64 26 -129 79 -156 64 -32 207 -21 207 17 0 24 -15 27 -67 15 -81 -19 -151 11 -165 70 -2 11 19 13 118 12 139 -3 148 2 134 64 -24 105 -127 154 -225 105z m133 -46 c12 -8 29 -28 37 -45 l16 -29 -111 0 c-60 0 -110 3 -110 8 1 18 29 56 51 68 33 18 90 17 117 -2z"/> <path d="M1722 360 c-47 -11 -60 -26 -41 -45 12 -13 21 -14 43 -5 41 15 118 12 144 -6 12 -8 22 -25 22 -37 0 -20 -4 -22 -46 -19 -71 6 -131 -7 -164 -34 -25 -21 -30 -33 -30 -69 0 -36 5 -48 31 -69 17 -15 44 -27 62 -27 55 -3 111 3 129 12 10 6 19 5 23 -1 3 -5 15 -10 26 -10 18 0 19 8 19 124 0 109 -2 126 -20 149 -33 42 -115 57 -198 37z m168 -200 c0 -46 -16 -58 -88 -66 -63 -7 -97 12 -97 51 0 40 32 55 118 55 l67 0 0 -40z"/> <path d="M2514 356 c-64 -28 -102 -111 -85 -186 17 -77 80 -122 170 -122 71 0 111 15 111 42 0 23 -8 24 -60 9 -21 -7 -54 -9 -74 -5 -41 8 -96 50 -96 74 0 15 15 17 127 17 l128 0 3 28 c2 15 -6 48 -18 72 -35 72 -129 104 -206 71z m125 -50 c22 -12 51 -52 51 -71 0 -3 -49 -5 -109 -5 -104 0 -109 1 -104 20 15 57 101 87 162 56z"/> <path d="M2861 354 c-25 -10 -36 -11 -41 -3 -4 6 -16 9 -26 7 -18 -3 -19 -14 -19 -153 0 -148 0 -150 23 -153 25 -4 24 -9 22 119 l-2 96 32 26 c24 20 43 27 75 27 48 0 64 13 45 35 -16 19 -65 18 -109 -1z"/> </g> </svg> 